# xmcd CD database file
#
# Track frame offsets:
#	150
#	24475
#	47375
#	77160
#	110250
#	128790
#	149545
#	169922
#	189685
#	221510
#	249422
#	269525
#
# Disc length: 3828 seconds
#
# Revision: 2
# Processed by: cddbd v1.4PL0 Copyright (c) Steve Scherf et al.
# Submitted via: CDex 1.40Beta9
#
DISCID=a90ef20c
DTITLE=Little Axe - The Wolf That House Built
DYEAR=1900
DGENRE=
TTITLE0=Ride On
TTITLE1=The Time Has Come
TTITLE2=Crossroads
TTITLE3=Never Turn Back Parts 1 and 2
TTITLE4=Another Sinful Day
TTITLE5=Out In The Rain And Cold
TTITLE6=Crossfire
TTITLE7=Wolfstory
TTITLE8=Hear My Cry
TTITLE9=Dayton
TTITLE10=Falling Down
TTITLE11=Wake The Town
EXTD=
EXTT0=
EXTT1=
EXTT2=
EXTT3=
EXTT4=
EXTT5=
EXTT6=
EXTT7=
EXTT8=
EXTT9=
EXTT10=
EXTT11=
PLAYORDER=
